<?xml version="1.0" encoding="utf-8"?>
<!-- Generator: Adobe Illustrator 16.0.0, SVG Export Plug-In . SVG Version: 6.00 Build 0)  -->
<!DOCTYPE svg PUBLIC "-//W3C//DTD SVG 1.1//EN" "http://www.w3.org/Graphics/SVG/1.1/DTD/svg11.dtd">
<svg version="1.1" id="Layer_1" xmlns="http://www.w3.org/2000/svg" xmlns:xlink="http://www.w3.org/1999/xlink" x="0px" y="0px"
	 width="100px" height="100px" viewBox="0 0 100 100" enable-background="new 0 0 100 100" xml:space="preserve">
<g>
	<polygon fill="#3C492A" points="40.584,41.961 37.938,41.625 35.514,42.104 38.104,42.411 	"/>
	<polygon fill="#3C492A" points="37.779,45.958 50.035,46.737 62.294,45.958 50.035,44.743 	"/>
	<polygon fill="#3C492A" points="58.318,41.961 61.301,42.485 64.559,42.104 61.648,41.53 	"/>
	<polygon fill="#B7C99C" points="46.014,63.999 53.027,62.364 59.792,63.932 52.779,66.022 	"/>
	<polygon fill="#769B3F" points="46.791,41.354 43.147,40.725 43.147,30.915 46.791,32.042 	"/>
	<polygon fill="#4D622C" points="37.779,33.049 37.779,28.745 50.035,22.659 50.035,28.18 43.147,30.915 43.147,40.59 
		50.035,39.221 50.035,77.872 46.361,76.047 46.361,70.891 43.147,69.616 43.147,45.426 37.779,45.958 37.779,41.657 35.514,42.104 
		35.514,33.946 	"/>
	<polygon fill="#769B3F" points="56.38,25.805 58.963,27.09 62.29,28.745 62.29,33.049 64.559,33.946 64.559,42.104 62.29,41.657 
		62.29,45.958 59.406,45.672 56.922,45.426 56.922,50.209 56.922,50.235 56.922,50.266 62.294,50.266 62.294,54.69 59.798,54.913 
		59.798,59.375 53.705,60.579 53.705,65.739 59.783,63.944 59.798,68.495 53.705,70.891 53.705,76.047 50.035,77.872 50.035,61.307 
		50.035,55.788 50.035,50.233 50.035,50.206 50.035,44.743 50.035,39.221 53.277,39.866 53.277,32.042 50.035,30.917 50.035,28.18 
		50.035,22.659 	"/>
	<polygon fill="#3C492A" points="53.705,29.635 50.035,28.18 43.147,30.915 46.791,32.042 	"/>
	<polygon fill="#4D622C" points="53.277,32.042 56.922,30.917 56.922,40.59 53.277,39.866 53.277,39.866 	"/>
	<polygon fill="#3C492A" points="43.147,30.915 50.035,28.18 50.035,28.18 50.035,28.18 51.484,28.754 53.705,29.635 53.705,29.635 
		56.922,30.917 53.277,32.042 50.035,30.915 46.791,32.042 	"/>
</g>
</svg>
