<?xml version="1.0" encoding="utf-8"?>
<!-- Generator: Adobe Illustrator 16.0.0, SVG Export Plug-In . SVG Version: 6.00 Build 0)  -->
<!DOCTYPE svg PUBLIC "-//W3C//DTD SVG 1.1//EN" "http://www.w3.org/Graphics/SVG/1.1/DTD/svg11.dtd">
<svg version="1.1" id="Layer_1" xmlns="http://www.w3.org/2000/svg" xmlns:xlink="http://www.w3.org/1999/xlink" x="0px" y="0px"
	 width="100px" height="100px" viewBox="0 0 100 100" enable-background="new 0 0 100 100" xml:space="preserve">
<g>
	<g enable-background="new    ">
		<g>
			<path fill="#F58535" d="M67.367,21.771c5.015,0,9.064,4.037,9.064,9.012v35.483c0,4.978-4.05,9.013-9.064,9.013H32.666
				c-5.014,0-9.08-4.035-9.08-9.013V30.784c0-4.976,4.066-9.012,9.08-9.012H67.367z"/>
		</g>
		<g enable-background="new    ">
			<defs>
				<path id="SVGID_109_" enable-background="new    " d="M76.432,66.267v3.146c0,4.976-4.05,9.011-9.064,9.011v-3.144
					C72.382,75.279,76.432,71.244,76.432,66.267z"/>
			</defs>
			<use xlink:href="#SVGID_109_"  overflow="visible" fill="#9D5125"/>
			<clipPath id="SVGID_2_">
				<use xlink:href="#SVGID_109_"  overflow="visible"/>
			</clipPath>
			<g clip-path="url(#SVGID_2_)" enable-background="new    ">
				<path fill="#9D5125" d="M76.432,66.267v3.146c0,0.438-0.033,0.869-0.092,1.291v-3.145
					C76.398,67.137,76.432,66.705,76.432,66.267"/>
				<path fill="#9D5125" d="M76.34,67.559v3.145c-0.074,0.5-0.188,0.986-0.337,1.457v-3.146
					C76.152,68.545,76.266,68.059,76.34,67.559"/>
				<path fill="#9D5125" d="M76.003,69.015v3.146c-0.179,0.554-0.408,1.084-0.687,1.585V70.6
					C75.595,70.1,75.824,69.569,76.003,69.015"/>
				<path fill="#9D5125" d="M75.316,70.6v3.146c-1.538,2.788-4.518,4.678-7.949,4.678v-3.144
					C70.799,75.279,73.778,73.389,75.316,70.6"/>
			</g>
		</g>
		<g>
			<rect x="32.291" y="75.279" fill="#9D5125" width="35.139" height="3.144"/>
		</g>
		<g enable-background="new    ">
			<defs>
				<path id="SVGID_111_" enable-background="new    " d="M32.666,75.279v3.144c-5.014,0-9.08-4.035-9.08-9.011v-3.146
					C23.586,71.244,27.652,75.279,32.666,75.279z"/>
			</defs>
			<use xlink:href="#SVGID_111_"  overflow="visible" fill="#9D5125"/>
			<clipPath id="SVGID_4_">
				<use xlink:href="#SVGID_111_"  overflow="visible"/>
			</clipPath>
			<g clip-path="url(#SVGID_4_)" enable-background="new    ">
				<path fill="#9D5125" d="M33.041,75.279v3.144c-5.014,0-9.455-4.035-9.455-9.011v-3.146c0,4.978,4.066,9.013,9.08,9.013"/>
			</g>
		</g>
	</g>
</g>
</svg>
