<?xml version="1.0" encoding="utf-8"?>
<!-- Generator: Adobe Illustrator 16.0.0, SVG Export Plug-In . SVG Version: 6.00 Build 0)  -->
<!DOCTYPE svg PUBLIC "-//W3C//DTD SVG 1.1//EN" "http://www.w3.org/Graphics/SVG/1.1/DTD/svg11.dtd">
<svg version="1.1" id="Layer_1" xmlns="http://www.w3.org/2000/svg" xmlns:xlink="http://www.w3.org/1999/xlink" x="0px" y="0px"
	 width="100px" height="100px" viewBox="0 0 100 100" enable-background="new 0 0 100 100" xml:space="preserve">
<g>
	<g>
		<g enable-background="new    ">
			<g>
				<defs>
					<path id="SVGID_247_" d="M85.137,58.555v2.615c0,5.863-6.395,11.791-14.256,11.791v-2.613
						C78.742,70.348,85.137,64.418,85.137,58.555z"/>
				</defs>
				<use xlink:href="#SVGID_247_"  overflow="visible" fill="#9D5125"/>
				<clipPath id="SVGID_2_">
					<use xlink:href="#SVGID_247_"  overflow="visible"/>
				</clipPath>
				<g clip-path="url(#SVGID_2_)" enable-background="new    ">
					<path fill="#9D5125" d="M85.137,58.555v2.615c0,0.4-0.029,0.799-0.086,1.193V59.75C85.107,59.354,85.137,58.955,85.137,58.555"
						/>
					<path fill="#9D5125" d="M85.051,59.75v2.613c-0.074,0.5-0.189,0.996-0.346,1.486v-2.613
						C84.861,60.744,84.977,60.25,85.051,59.75"/>
					<path fill="#9D5125" d="M84.705,61.236v2.613c-0.205,0.633-0.477,1.258-0.812,1.861v-2.613
						C84.229,62.492,84.5,61.869,84.705,61.236"/>
					<path fill="#9D5125" d="M83.893,63.098v2.613c-2.23,4.035-7.223,7.25-13.012,7.25v-2.613
						C76.67,70.348,81.662,67.131,83.893,63.098"/>
				</g>
			</g>
			<g>
				<polygon fill="#9D5125" points="71.587,69.895 70.881,72.961 28.9,72.961 28.17,69.853 				"/>
			</g>
			<g>
				<defs>
					<path id="SVGID_249_" d="M28.9,70.348v2.613c-7.875,0-14.254-5.928-14.254-11.791v-2.615
						C14.646,64.418,21.025,70.348,28.9,70.348z"/>
				</defs>
				<use xlink:href="#SVGID_249_"  overflow="visible" fill="#9D5125"/>
				<clipPath id="SVGID_4_">
					<use xlink:href="#SVGID_249_"  overflow="visible"/>
				</clipPath>
				<g clip-path="url(#SVGID_4_)" enable-background="new    ">
					<path fill="#9D5125" d="M28.9,70.348v2.613c-7.875,0-14.254-5.928-14.254-11.791v-2.615
						C14.646,64.418,21.025,70.348,28.9,70.348"/>
				</g>
			</g>
			<g>
				<path fill="#F58535" d="M41.771,26.725c7.318,0,13.617,4.352,16.443,10.578c1.465-0.998,3.246-1.592,5.17-1.592
					c4.945,0,8.963,3.896,9.113,8.775c7.113,0.594,12.639,7.439,12.639,12.885v1.184c0,5.863-6.395,11.793-14.256,11.793H28.9
					c-7.875,0-14.254-5.93-14.254-11.793v-1.184c0-4.502,3.801-10.717,9.137-12.238c-0.016-0.174-0.027-0.35-0.027-0.525
					C23.756,34.729,31.82,26.725,41.771,26.725z"/>
			</g>
		</g>
	</g>
	<g>
		<path fill="#FFFFFF" d="M32.311,47.654l-4.707,16.447h2.76l1.064-4.029h4.848l1.023,4.029h2.758l-4.359-16.447H32.311z
			 M31.918,57.977l1.973-8.111h0.043l1.902,8.111H31.918z"/>
		<polygon fill="#FFFFFF" points="51.887,60.506 51.84,60.506 49.613,47.654 46.83,47.654 44.652,60.438 44.604,60.438 
			42.428,47.654 39.76,47.654 42.957,64.102 46.02,64.102 48.131,51.711 48.18,51.711 50.312,64.102 53.371,64.102 56.662,47.654 
			54.041,47.654 		"/>
		<path fill="#FFFFFF" d="M65.174,55.119l-1.785-0.648c-1.762-0.666-2.48-1.381-2.48-2.783c0-1.754,1.09-2.375,2.223-2.375
			c1.646,0,2.32,0.875,2.32,2.375v0.346h2.646V51.66c0-1.701-0.441-4.328-4.684-4.328c-3.107,0-5.148,1.66-5.148,4.658
			c0,2.346,1.041,3.59,3.453,4.508l1.809,0.627c1.488,0.434,2.367,1.197,2.367,2.922c0,1.221-0.838,2.398-2.506,2.398
			c-1.828,0-2.711-1.016-2.711-3.018V59.01h-2.646v0.393c0,2.305,0.93,5.02,5.031,5.02c3.34,0,5.477-1.449,5.477-4.947
			C68.539,57.215,67.516,55.945,65.174,55.119z"/>
	</g>
</g>
</svg>
