<?xml version="1.0" encoding="utf-8"?>
<!-- Generator: Adobe Illustrator 16.0.0, SVG Export Plug-In . SVG Version: 6.00 Build 0)  -->
<!DOCTYPE svg PUBLIC "-//W3C//DTD SVG 1.1//EN" "http://www.w3.org/Graphics/SVG/1.1/DTD/svg11.dtd">
<svg version="1.1" id="Layer_1" xmlns="http://www.w3.org/2000/svg" xmlns:xlink="http://www.w3.org/1999/xlink" x="0px" y="0px"
	 width="100px" height="100px" viewBox="0 0 100 100" enable-background="new 0 0 100 100" xml:space="preserve">
<g>
	<polygon fill="#D9A741" points="56.94,53.933 33.108,55.837 33.108,69.493 56.94,63.071 	"/>
	<polygon fill="#D9A741" points="44.634,50.069 33.019,50.069 33.019,30.685 44.634,33.806 	"/>
	<polygon fill="#624A1E" points="44.999,37.147 54.085,34.847 69.669,39.485 61.327,40.655 	"/>
	<polygon fill="#D9A741" points="56.47,50.069 49.581,50.069 49.581,22.46 56.47,25.882 	"/>
	<polygon fill="#D9A741" points="69.669,50.069 72.606,50.069 72.606,33.896 69.669,32.433 	"/>
	<polygon fill="#D9A741" points="72.606,40.364 49.581,33.505 49.581,22.46 72.606,33.896 	"/>
	<polygon fill="#866929" points="37.325,50.069 49.581,50.069 49.581,22.46 37.325,28.55 	"/>
	<polygon fill="#866929" points="33.019,30.714 26.612,33.925 26.612,50.099 33.019,50.099 	"/>
	<polygon fill="#866929" points="61.368,50.069 69.669,50.069 69.669,39.485 61.368,40.651 	"/>
	<polygon fill="#D9A741" points="72.606,54.894 49.581,58.304 49.581,77.677 72.606,66.241 	"/>
	<polygon fill="#866929" points="37.325,56.542 49.581,58.364 49.581,77.708 37.325,71.62 	"/>
	<polygon fill="#866929" points="26.612,54.946 33.108,55.897 33.108,69.526 26.612,66.304 	"/>
	<polygon fill="#F9D68F" points="72.606,54.894 61.538,54.212 37.325,56.513 49.474,58.315 	"/>
	<polygon fill="#F9D68F" points="56.94,53.933 49.638,53.485 26.612,54.901 33.108,55.874 	"/>
</g>
</svg>
