<?xml version="1.0" encoding="utf-8"?>
<!-- Generator: Adobe Illustrator 16.0.0, SVG Export Plug-In . SVG Version: 6.00 Build 0)  -->
<!DOCTYPE svg PUBLIC "-//W3C//DTD SVG 1.1//EN" "http://www.w3.org/Graphics/SVG/1.1/DTD/svg11.dtd">
<svg version="1.1" id="Layer_1" xmlns="http://www.w3.org/2000/svg" xmlns:xlink="http://www.w3.org/1999/xlink" x="0px" y="0px"
	 width="100px" height="100px" viewBox="0 0 100 100" enable-background="new 0 0 100 100" xml:space="preserve">
<g>
	<path fill="#866929" d="M71.489,70.319l0.098-0.425L28.17,69.853l0.109,0.466c-7.584-0.303-13.633-6.057-13.633-11.764v2.615
		c0,5.863,6.379,11.791,14.254,11.791h41.98c7.861,0,14.256-5.928,14.256-11.791v-2.615C85.137,64.265,79.067,70.021,71.489,70.319z
		"/>
	<g>
		<path fill="#D9A741" d="M41.771,26.725c7.318,0,13.617,4.352,16.443,10.578c1.465-0.998,3.246-1.592,5.17-1.592
			c4.945,0,8.963,3.896,9.113,8.775c7.113,0.594,12.639,7.439,12.639,12.885v1.184c0,5.863-6.395,11.793-14.256,11.793H28.9
			c-7.875,0-14.254-5.93-14.254-11.793v-1.184c0-4.502,3.801-10.717,9.137-12.238c-0.016-0.174-0.027-0.35-0.027-0.525
			C23.756,34.729,31.82,26.725,41.771,26.725z"/>
	</g>
	<g>
		<path fill="#FFFFFF" d="M31.736,47.65h2.794l2.793,13.158h0.044l2.955-13.158h2.794l-4.154,16.481h-3.349L31.736,47.65z"/>
		<path fill="#FFFFFF" d="M44.801,47.65h5.217c3.163,0,4.548,1.985,4.548,4.801c0,2.955-1.732,4.87-4.823,4.87h-2.311v6.811h-2.631
			V47.65z M47.432,55.337h1.87c1.407,0,2.631-0.761,2.631-2.84c0-1.778-0.714-2.861-2.815-2.861h-1.686V55.337z"/>
		<path fill="#FFFFFF" d="M66.937,58.222v0.347c0,2.979-1.198,5.886-5.077,5.886c-4.155,0-5.449-2.677-5.449-8.563
			c0-5.885,1.294-8.564,5.474-8.564c4.685,0,4.962,3.463,4.962,5.171V52.8h-2.633v-0.278c0-1.524-0.461-3.28-2.354-3.21
			c-1.939,0-2.816,1.202-2.816,6.511s0.877,6.648,2.816,6.648c2.192,0,2.447-2.448,2.447-3.971v-0.278H66.937z"/>
	</g>
</g>
</svg>
