<?xml version="1.0" encoding="utf-8"?>
<!-- Generator: Adobe Illustrator 16.0.0, SVG Export Plug-In . SVG Version: 6.00 Build 0)  -->
<!DOCTYPE svg PUBLIC "-//W3C//DTD SVG 1.1//EN" "http://www.w3.org/Graphics/SVG/1.1/DTD/svg11.dtd">
<svg version="1.1" id="Layer_1" xmlns="http://www.w3.org/2000/svg" xmlns:xlink="http://www.w3.org/1999/xlink" x="0px" y="0px"
	 width="100px" height="100px" viewBox="0 0 100 100" enable-background="new 0 0 100 100" xml:space="preserve">
<g>
	<polygon fill="#F58535" points="33.697,66.722 28.131,67.983 28.131,32.17 33.697,33.436 	"/>
	<polygon fill="#F58535" points="40.645,68.837 33.697,70.796 33.697,29.406 40.645,31.366 	"/>
	<polygon fill="#F58535" points="49.556,71.007 40.645,74.245 40.645,25.956 49.556,29.196 	"/>
	<polygon fill="#F58535" points="73.384,66.831 49.556,78.663 49.556,21.531 73.384,33.364 	"/>
	<polygon fill="#9D5125" points="44.806,23.89 49.556,21.531 49.556,78.663 44.806,76.304 	"/>
	<polygon fill="#9D5125" points="36.968,27.784 40.645,25.956 40.645,74.237 36.968,72.411 	"/>
	<polygon fill="#9D5125" points="30.769,30.86 33.697,29.406 33.697,70.786 30.769,69.331 	"/>
	<polygon fill="#9D5125" points="28.131,32.17 25.742,33.358 25.742,66.837 28.131,68.022 	"/>
</g>
</svg>
